<?xml version="1.0" encoding="utf-8"?>
<svg id="master-artboard" viewBox="0 0 1422.50732421875 496.35430908203125" version="1.1" xmlns="http://www.w3.org/2000/svg" x="0px" y="0px" style="enable-background:new 0 0 1400 980;" width="1422.50732421875px" height="496.35430908203125px"><rect id="ee-background" x="0" y="0" width="1422.50732421875" height="496.35430908203125" style="fill: white; fill-opacity: 0; pointer-events: none;"/><g transform="matrix(12.068965911865234, 0, 0, 12.068965911865234, 7.280216217041016, 55.506752014160156)"><path d="M32.74 7.117h3.19v5.763h.078l4.205-5.763h3.503l-4.266 5.626 5.05 8.475h-3.496l-3.428-5.956-1.647 2.178v3.78H32.74V7.118zM45.588 10.485h2.596l.23 1.359h.078c.904-.868 1.986-1.62 3.45-1.62 2.335 0 3.33 1.649 3.33 4.332v6.665H52.09v-6.258c0-1.544-.415-2.028-1.334-2.028-.799 0-1.288.372-1.988 1.043v7.243h-3.18V10.485zM56.996 15.857c0-3.483 2.485-5.632 5.064-5.632 3.059 0 4.572 2.224 4.572 5.153.003.472-.042.942-.132 1.405h-6.422c.285 1.558 1.359 2.273 2.784 2.273.813 0 1.543-.248 2.321-.703l1.054 1.918a7 7 0 01-3.811 1.21c-3.06 0-5.43-2.07-5.43-5.624zm6.92-1.177c0-1.19-.51-2.04-1.784-2.04-1.006 0-1.87.68-2.09 2.04h3.874zM67.039 10.485h3.16l1.028 4.976c.188 1.059.305 2.104.487 3.19h.085c.189-1.086.377-2.167.637-3.19l1.171-4.971h2.763l1.206 4.971c.26 1.059.449 2.104.68 3.19h.086c.187-1.086.306-2.131.493-3.19l1.02-4.971h2.939l-2.566 10.736h-3.73l-.986-4.292c-.196-.994-.378-1.983-.573-3.138h-.087c-.188 1.155-.34 2.151-.543 3.147l-.943 4.283h-3.64L67.04 10.485zM85.096 17.318v-4.337h-1.467V10.6l1.647-.121.37-2.851h2.632v2.856h2.572v2.496h-2.572v4.298c0 1.217.552 1.7 1.39 1.7.348-.013.693-.082 1.02-.205l.509 2.31a7.587 7.587 0 01-2.379.39c-2.667.007-3.722-1.668-3.722-4.156zM91.768 15.857c0-3.568 2.513-5.632 5.23-5.632 2.716 0 5.229 2.062 5.229 5.632s-2.513 5.624-5.23 5.624c-2.716 0-5.229-2.063-5.229-5.624zm7.2 0c0-1.859-.654-3.058-1.97-3.058-1.317 0-1.97 1.206-1.97 3.058 0 1.852.655 3.058 1.97 3.058s1.97-1.2 1.97-3.058zM103.882 10.485h2.595l.229 1.359h.078c.904-.868 1.986-1.62 3.451-1.62 2.334 0 3.33 1.649 3.33 4.332v6.665h-3.18v-6.258c0-1.544-.415-2.028-1.334-2.028-.799 0-1.288.372-1.988 1.043v7.243h-3.181V10.485z" fill="#21243C"/><path d="M70.799 31.48l-.592-1.659h-2.064l-.606 1.659h-.765l2.064-5.419h.753l1.972 5.419H70.8zm-1.596-4.528l-.829 2.271H70l-.797-2.271zM79.613 31.48h-.707l-1.43-4.49-1.381 4.49h-.722l-1.666-5.419h.76l1.281 4.49 1.375-4.49h.706l1.43 4.49 1.275-4.49h.744l-1.665 5.419zM82.036 26.767v-.706h.59v.706h-.59zm0 4.713v-3.616h.59v3.616h-.59zM83.667 31.48V26.06h.584v5.419h-.584zM85.775 29.83c0 .56.31 1.305 1.174 1.305.638 0 .877-.51.954-.85l.621.085a1.65 1.65 0 01-1.636 1.232c-.89 0-1.772-.53-1.772-1.957 0-1.375 1-1.888 1.75-1.888.79 0 1.659.528 1.659 1.933v.1h-2.75v.04zm2.082-.491c0-.6-.423-1.113-1.035-1.113-.654 0-.977.537-1.03 1.113h2.065zM92.064 27.864l-1.53 4.277c-.292.82-.489 1.128-1.128 1.128-.184 0-.368-.026-.545-.077v-.552c.131.043.27.064.408.061.361 0 .497-.146.706-.753l.153-.445-1.22-3.639h.653l.907 2.871.958-2.87h.638zM94.67 26.061h2.6c.776 0 1.56.483 1.56 1.39a1.189 1.189 0 01-.83 1.174c.43.13.99.452.99 1.36 0 1.206-1.019 1.496-1.698 1.496H94.67v-5.42zm2.285 2.279c.484 0 1.113-.092 1.113-.85 0-.445-.253-.79-.926-.79h-1.79v1.642l1.603-.002zm.156 2.503c.529 0 1.135-.084 1.135-.913 0-.652-.462-.975-1.112-.975H95.35v1.888h1.76zM100.583 27.864v.661c.082-.161.198-.302.339-.415.257-.198.575-.301.899-.292v.661a1.243 1.243 0 00-.236-.024.935.935 0 00-.946.68c-.048.22-.066.444-.053.668v1.673h-.613v-3.612h.61zM104.635 29.193c0-.34-.009-.976-.807-.976-.51 0-.784.254-.784.707v.055l-.637-.04c0-.17.109-1.189 1.39-1.189.315-.005.627.068.907.214.51.293.546.668.546 1.314v1.274c0 .214 0 .421.275.421a.721.721 0 00.183-.03v.51a1.116 1.116 0 01-.392.067.752.752 0 01-.382-.091.735.735 0 01-.247-.445 1.576 1.576 0 01-1.235.59c-.722 0-1.228-.414-1.228-1.036a.967.967 0 01.392-.783c.367-.275 1.004-.375 1.465-.406l.554-.039v-.117zm-1.29.783c-.117.046-.445.199-.445.552 0 .269.199.537.679.537.34 0 1.061-.138 1.061-1.067v-.284c-.282.046-1.011.138-1.295.262zM108.784 31.48V29.1c0-.56-.401-.783-.823-.783a.952.952 0 00-.96 1.02v2.14h-.615v-3.614h.615v.53a1.29 1.29 0 011.137-.644 1.297 1.297 0 011.03.498c.205.292.222.607.222.945v2.287h-.606zM113.155 31.48v-.46a1.5 1.5 0 01-1.237.575c-1.06 0-1.667-.814-1.667-1.933 0-1.405.921-1.912 1.659-1.912a1.545 1.545 0 011.245.59V26.06h.612v5.419h-.612zm-1.114-.43c.538 0 1.128-.321 1.128-1.427 0-.745-.428-1.314-1.113-1.314-.828 0-1.144.692-1.144 1.375-.008.637.245 1.366 1.12 1.366h.009z" fill="#000"/><path d="M10.515 4.526c.187-.207 1.176-1.283 2.109-1.283a2.266 2.266 0 01.836.13c1.622.57 2.829 2.954 3.34 6.311.727.375 1.416.768 2.066 1.18-.607-5.296-2.698-9.099-5.253-9.099-1.074 0-2.102.671-2.972 1.939 0 .008-.263.406-.38.615-.215.365-.002.488.254.207zM19.039 13.647a17.965 17.965 0 00-2-1.472c.017.34.03.68.03 1.02v.064c0 1.01-.06 2.02-.184 3.023a18.364 18.364 0 01-.457 2.407 12.423 12.423 0 01-.639 1.85c-.73 1.662-1.7 2.617-2.683 2.624-1.172.01-2.161-1.05-2.83-2.328-.395.083-.78.155-1.16.21.63 2.578 1.905 5.19 4.488 5.278 1.869.063 3.503-2.005 4.475-5.214.113-.382.22-.778.32-1.19.193-.84.34-1.691.441-2.548.09-.756.15-1.543.17-2.352.01-.32.017-.643.017-.971.015-.14.014-.269.012-.401z" fill="#EF6469" transform="matrix(1.0000000000000002, 0, 0, 1.0000000000000002, 0.4852579487406743, -3.5909088505351114)"/><path d="M19.029 15.013a31.064 31.064 0 01-.17 2.351c.747-.463 1.467-.97 2.154-1.519a8.441 8.441 0 00-1.148-1.427c-.272.194-.55.398-.836.595zM24.529 9.175c-.435-.98-1.465-1.648-2.977-1.929-.01 0-.479-.074-.717-.1-.428-.042-.453.202-.093.321.265.087 1.65.554 2.028 1.409.07.15.126.308.167.469.028.116.047.235.056.355.075.97-.442 2.057-1.422 3.152.456.395.888.817 1.295 1.264 1.6-1.778 2.28-3.553 1.663-4.941zM16.62 16.43l-.051.025c-.36.184-.729.359-1.108.525l-.03.012-.03.015c-2.195.972-4.216 1.517-5.909 1.708-.272.03-.533.052-.785.064-2.064.1-3.513-.395-3.955-1.372-.703-1.552.81-3.657 2.324-4.895a28.797 28.797 0 012.608-1.764c.34-.204.398-.632-.227-.448-.152.042-9.3 4.111-7.391 8.834.735 1.823 3.498 2.444 7.052 1.907.38-.056.765-.128 1.16-.21a25.03 25.03 0 003.492-1.02l.93-.362c.265-.107.53-.214.795-.34.316-.141.622-.287.926-.435.205-.79.358-1.591.457-2.4l-.184.096-.074.06z" fill="#F5CB5E" transform="matrix(1.0000000000000002, 0, 0, 1.0000000000000002, 0.4852579487406743, -3.5909088505351114)"/><path d="M12.75 15.903a1.78 1.78 0 100-3.561 1.78 1.78 0 000 3.56z" fill="#21243C" transform="matrix(1.0000000000000002, 0, 0, 1.0000000000000002, 0.4852579487406743, -3.5909088505351114)"/><path d="M22.865 14.117a15.302 15.302 0 00-1.287-1.264 21.851 21.851 0 00-2.719-1.998c-.644-.41-1.33-.8-2.06-1.17-.363-.187-.736-.37-1.119-.548C9.428 6.25 3.53 6.147 2.258 8.911c-.452.976-.274 2.189.51 3.51 0 .01.258.41.397.606.25.35.45.208.303-.142-.11-.256-.672-1.605-.279-2.453.067-.152.147-.297.241-.433.069-.099.146-.191.23-.277 1.44-1.477 5.012-1.317 9.174.32l.087.033.053.022c.373.148.747.31 1.121.481l.029.015a24.4 24.4 0 012.919 1.59c.7.444 1.368.936 2 1.472.299.258.565.51.815.772.434.432.819.91 1.149 1.427.594.956.773 1.828.47 2.494-.458 1.02-1.714 1.468-3.058 1.575-.097.414-.204.81-.32 1.19 2.55.466 5.33.35 6.457-1.897.695-1.392-.007-3.245-1.69-5.099z" fill="#00A4B7" transform="matrix(1.0000000000000002, 0, 0, 1.0000000000000002, 0.4852579487406743, -3.5909088505351114)"/><path d="M -8.943669319152832 11.574090957641602" style="fill: rgb(33, 36, 60); fill-opacity: 1; stroke: rgb(0, 0, 0); stroke-opacity: 1; stroke-width: 0; paint-order: fill;"/></g><path d="M 431.5400085449219 185.5738525390625 C 431.5400085449219 197.96717834472656 428.1300048828125 207.51718139648438 421.30999755859375 214.22384643554688 C 414.489990234375 220.92384338378906 404.8999938964844 224.2738494873047 392.5400085449219 224.2738494873047 L 368.5199890136719 224.2738494873047 L 368.5199890136719 150.03384399414062 L 394.2200012207031 150.03384399414062 C 406.1333312988281 150.03384399414062 415.3333435058594 153.08050537109375 421.82000732421875 159.17385864257812 C 428.29998779296875 165.26718139648438 431.5400085449219 174.0671844482422 431.5400085449219 185.5738525390625 M 410.7200012207031 186.29385375976562 C 410.7200012207031 179.4871826171875 409.3766784667969 174.44052124023438 406.69000244140625 171.1538543701172 C 403.9966735839844 167.87384033203125 399.90667724609375 166.23385620117188 394.41998291015625 166.23385620117188 L 388.5799865722656 166.23385620117188 L 388.5799865722656 207.8238525390625 L 393.04998779296875 207.8238525390625 C 399.1433410644531 207.8238525390625 403.61334228515625 206.05384826660156 406.4599914550781 202.51385498046875 C 409.29998779296875 198.97384643554688 410.7200012207031 193.5671844482422 410.7200012207031 186.29385375976562 ZM 488.2999572753906 224.2738494873047 L 444.2199401855469 224.2738494873047 L 444.2199401855469 150.03384399414062 L 488.2999572753906 150.03384399414062 L 488.2999572753906 166.13385009765625 L 464.2799377441406 166.13385009765625 L 464.2799377441406 177.8138427734375 L 486.51995849609375 177.8138427734375 L 486.51995849609375 193.9038543701172 L 464.2799377441406 193.9038543701172 L 464.2799377441406 207.92384338378906 L 488.2999572753906 207.92384338378906 L 488.2999572753906 224.2738494873047 ZM 542.3649291992188 150.03384399414062 L 564.81494140625 150.03384399414062 L 540.4949340820312 224.2738494873047 L 516.8748779296875 224.2738494873047 L 492.6549072265625 150.03384399414062 L 515.2048950195312 150.03384399414062 L 525.304931640625 187.66384887695312 C 527.4049072265625 196.0238494873047 528.5582275390625 201.84718322753906 528.764892578125 205.13385009765625 C 528.9982299804688 202.76051330566406 529.4715576171875 199.79718017578125 530.1849365234375 196.2438507080078 C 530.8916015625 192.69052124023438 531.5182495117188 189.89718627929688 532.0648803710938 187.8638458251953 L 542.3649291992188 150.03384399414062 ZM 568.56103515625 215.84384155273438 C 568.56103515625 212.7305145263672 569.4810180664062 210.32717895507812 571.321044921875 208.63385009765625 C 573.167724609375 206.94052124023438 575.8510131835938 206.09384155273438 579.3710327148438 206.09384155273438 C 582.724365234375 206.09384155273438 585.2977294921875 206.94052124023438 587.091064453125 208.63385009765625 C 588.8843994140625 210.32717895507812 589.7810668945312 212.7305145263672 589.7810668945312 215.84384155273438 C 589.7810668945312 218.89051818847656 588.8610229492188 221.27052307128906 587.0210571289062 222.98385620117188 C 585.1743774414062 224.69052124023438 582.6243896484375 225.54385375976562 579.3710327148438 225.54385375976562 C 576.0243530273438 225.54385375976562 573.3843994140625 224.6971893310547 571.4510498046875 223.00384521484375 C 569.5243530273438 221.31051635742188 568.56103515625 218.92384338378906 568.56103515625 215.84384155273438 Z" transform="matrix(1.0000072717666626, -0.00044955231714993715, 0.00044955231714993715, 1.0000072717666626, 35.72136688232422, -99.42493438720703)" style="fill: rgb(33, 36, 60); white-space: pre; color: rgb(239, 100, 105);"/></svg>